<svg fill="none" height="52" viewBox="0 0 166 52" width="166" xmlns="http://www.w3.org/2000/svg"><path d="m24.3449 45.1895c-.4719 1.2321-.8254 2.3516-.8254 2.9381 0 1.7613 1.4286 3.1899 3.1899 3.1899.5756 0 1.1146-.1531 1.5806-.4196-2.2924-.8905-3.9214-3.107-3.9451-5.7084z" fill="#06213e"/><path d="m29.6355 49.4053c-2.5965-.7336-4.499-3.1188-4.499-5.9503 0-.0682.003-.1402.0079-.2153-.2755.6418-.5519 1.3111-.7967 1.9509.0237 2.6015 1.6527 4.8179 3.9451 5.7084.5934-.3396 1.0673-.8629 1.3427-1.4937z" fill="#b5b8c5"/><path d="m29.8233 47.5226c-2.2835-.9093-3.8987-3.1386-3.8987-5.747 0-.1036.0059-.2172.0168-.3376-.2429.5311-.5203 1.1512-.7987 1.8008-.005.075-.0079.1481-.0079.2152 0 2.8315 1.9034 5.2168 4.499 5.9503.1708-.3909.2665-.8224.2665-1.2775 0-.1629-.0276-.3683-.077-.6052z" fill="#576178"/><path d="m29.8245 47.5223c-.4867-2.3181-3.1128-7.7264-3.1128-7.7264s-.3258.6713-.7691 1.6418c-.0109.1205-.0168.234-.0168.3377 0 2.6084 1.6152 4.8376 3.8987 5.7469z" fill="#681e4a"/><path d="m25.7498 18.9409c.0869.2112.1679.4235.2469.6358.2952.7957.5351 1.6013.7217 2.4158.1866-.8145.4275-1.6191.7217-2.4158.0789-.2123.1599-.4246.2468-.6348 2.247-6.1142 7.1597-11.40998 14.736-15.88826-2.0831-1.27654-4.3331-2.306273-6.7105-3.0496909-4.9719 4.2146809-7.9683 8.9012709-8.994 14.0617509-1.0258-5.16245-4.0242-9.85004-8.999-14.0657-2.3784.742431-4.6304 1.77216-6.7155 3.04673 7.5813 4.47927 12.4969 9.77797 14.745 15.89317z" fill="#681e4a"/><path d="m26.1687 35.397c.2103.5341.392 1.0722.5489 1.6132.157-.542.3387-1.0801.549-1.6132 1.7267-4.3174 4.8702-8.2398 9.4275-11.7703 4.5128-3.5038 10.086-6.4439 16.7264-8.8203-1.1374-2.17-2.5314-4.1841-4.1416-6.00166-5.0667 2.14736-9.4019 4.65596-13.0044 7.52896-3.6451 2.8957-6.3551 6.0619-8.1322 9.5035-.6023 1.1551-1.0762 2.3339-1.4256 3.5345-.3495-1.2006-.8234-2.3794-1.4257-3.5345-1.7771-3.4416-4.4871-6.6078-8.1322-9.5035-3.6055-2.8749-7.94456-5.3866-13.01718-7.5339-1.60926 1.8166-3.00329 3.8306-4.14162 6.0007 6.64634 2.3773 12.2254 5.3194 16.7412 8.8252 4.5583 3.5315 7.7008 7.453 9.4275 11.7703z" fill="#b5b8c5"/><path d="m43.0269 3.43168c-7.6761 4.34006-12.7902 9.51042-15.3403 15.50912-.0869.2113-.1678.4235-.2468.6358-.2952.7957-.5351 1.6014-.7217 2.4159-.1866-.8145-.4275-1.6192-.7217-2.4159-.079-.2123-.1599-.4245-.2468-.6348-2.5511-6.0007-7.6682-11.17302-15.3492-15.51407-2.1177 1.36541-4.05275 2.98947-5.76173 4.82679 5.06374 2.23518 9.35743 4.83868 12.88593 7.81128 3.5532 2.9836 6.1438 6.2416 7.7698 9.7711.6023 1.1551 1.0762 2.3339 1.4257 3.5344.3495-1.2005.8234-2.3793 1.4256-3.5344 1.625-3.5295 4.2157-6.7875 7.7698-9.7711 3.5246-2.9697 7.8153-5.5721 12.8731-7.80634-1.708-1.83732-3.642-3.46139-5.7587-4.82679z" fill="#576178"/><g fill="#6b204b"><path d="m68.6306 4.85333v17.29507h-3.0882v-17.29507h-4.6283v-2.90753h12.3537v2.90753z"/><path d="m74.541 9.3958h2.9747v1.1502c.3564-.4147.772-.77405 1.2351-1.0643.5548-.30409 1.1827-.44921 1.8146-.41861.8253-.00494 1.6349.22312 2.3378.65555l-1.2163 2.68936c-.4472-.2972-.9734-.4561-1.5105-.4561-.6891-.0543-1.3664.2033-1.8433.7029-.6387.8372-.9319 1.8887-.8174 2.9362v6.6522h-2.9747z"/><path d="m96.6537 15.7814c-.0029 3.7625-3.0556 6.8112-6.8181 6.8082-3.7595-.0029-6.8053-3.0496-6.8083-6.8082.003-3.7625 3.0557-6.81122 6.8182-6.80825 3.7595.00296 6.8053 3.04965 6.8082 6.80825zm-3.0309 0c0-2.9075-1.9005-4.0952-3.801-4.0952s-3.801 1.1877-3.801 4.0952c0 2.4514 1.4542 4.0577 3.801 4.0577 2.3467 0 3.801-1.5678 3.801-4.0192z"/><path d="m101.082 9.396 3.269 7.2693 3.269-7.2693h3.335l-6.652 13.656-6.6526-13.656h3.4306z"/><path d="m123.766 19.222c-.518.9379-1.255 1.7366-2.147 2.328-1.151.6714-2.469 1.0001-3.801.9508-1.603.0918-3.167-.5026-4.305-1.635-1.255-1.3091-1.938-3.0625-1.9-4.8751-.031-1.945.695-3.8257 2.024-5.2454 1.129-1.13638 2.675-1.75737 4.276-1.71986 1.534-.04146 3.016.56176 4.086 1.66256 1.263 1.5017 1.902 3.4298 1.787 5.3886v.3702h-9.151c.064.9567.449 1.864 1.093 2.5748.612.5736 1.433.8698 2.27.8175.732.0316 1.452-.1935 2.034-.6368.48-.3851.88-.859 1.179-1.397l2.556 1.4157zm-2.936-5.1792c-.118-.6654-.452-1.2726-.951-1.7297-1.197-.9962-2.946-.9557-4.095.0947-.449.4493-.762 1.015-.902 1.635z"/><path d="m67.1099 28.725c2.4515 0 4.0291.3041 5.3313 1.1877 1.5441 1.082 2.4435 2.866 2.3952 4.7517.0967 2.7269-1.8067 5.1171-4.4852 5.6354l6.3008 8.6288h-3.725l-5.7874-8.2674h-.542v8.2674h-3.0507v-20.2026h3.563zm-.5133 9.2745h.9507c.8461 0 4.2956-.0948 4.2956-3.3074 0-2.8513-2.6893-3.1168-4.2097-3.1168h-1.0356v6.4242zm23.6521 8.0581c-.5163.9409-1.2538 1.7435-2.1473 2.3379-1.1512.6713-2.4692 1.0001-3.801.9507-1.5816.076-3.1238-.5094-4.2571-1.6152-1.2509-1.3111-1.9341-3.0635-1.9006-4.8751-.0325-1.945.6941-3.8267 2.024-5.2454 1.1304-1.1413 2.6804-1.7663 4.2857-1.7297 1.5362-.0385 3.0181.5676 4.0864 1.6724 1.2804 1.5076 1.9281 3.4515 1.8057 5.4261v.3613h-9.1511c.0622.9577.4473 1.865 1.0929 2.5748.6092.5786 1.4336.8748 2.2708.8175.7315.0316 1.4513-.1935 2.0338-.6368.4818-.3791.8816-.851 1.1788-1.3871l2.48 1.3496zm-2.946-5.1793c-.1185-.6624-.4522-1.2676-.9508-1.7198-1.1916-1.007-2.947-.9705-4.0952.0859-.463.4453-.7918 1.012-.9507 1.6349h5.9967zm11.403-1.3022c-.3702-.6575-1.0603-1.0692-1.8146-1.083-.3495-.0257-.6931.0948-.9507.3327-.1758.1767-.2745.4156-.2755.6654-.0039.3021.1609.5805.4275.7227.1807.1234.3613.1807.9507.5223l1.5204.7503c.6625.2853 1.2677.6872 1.7875 1.1877.634.6161.98 1.472.95 2.3566.012 1.0771-.389 2.1177-1.121 2.9076-.9204.9823-2.2296 1.5046-3.5732 1.4256-.9843.0434-1.9539-.2449-2.7555-.8175-.7612-.6032-1.3289-1.4157-1.6349-2.3378l2.4227-1.1502c.1461.4502.3861.8648.703 1.2163.3514.3288.8204.5035 1.3022.4847.4413.0129.8717-.1401 1.2064-.4274.2646-.2656.4177-.623.4275-.9982-.0049-.3564-.1481-.697-.3988-.9507-.3693-.3426-.8017-.6111-1.2736-.7889l-1.0831-.5133c-.6417-.2646-1.236-.6339-1.7583-1.093-.618-.541-.9656-1.3268-.9507-2.1473.0118-1.0277.4205-2.012 1.1403-2.7466.8174-.8332 1.9518-1.2755 3.1168-1.2163.8402-.0286 1.6675.2073 2.3665.6743.6067.3939 1.1067.933 1.4547 1.5678l-2.1863 1.4543zm16.4493 6.4805c-.517.9409-1.254 1.7435-2.148 2.3379-1.152.6693-2.47.9991-3.801.9507-1.581.076-3.123-.5094-4.257-1.6152-1.255-1.3091-1.938-3.0625-1.9-4.8751-.033-1.9469.697-3.8297 2.034-5.2454 1.123-1.1393 2.667-1.7643 4.267-1.7297 1.536-.0425 3.02.5647 4.086 1.6724 1.288 1.5036 1.94 3.4505 1.814 5.4261v.3613h-9.151c.059.9587.445 1.867 1.093 2.5748.609.5796 1.433.8758 2.271.8175.729.0336 1.445-.1925 2.024-.6368.484-.3791.888-.851 1.188-1.3871l2.48 1.3496zm-2.936-5.1792c-.12-.6625-.454-1.2667-.951-1.7199-1.189-1.006-2.94-.9695-4.087.0859-.466.4433-.795 1.01-.95 1.6349h5.987zm15.147-4.656h2.965v12.7427h-2.965v-1.3308c-.944 1.1166-2.339 1.7514-3.801 1.7297-3.934 0-6.176-3.2689-6.176-6.7846 0-4.1524 2.851-6.6522 6.205-6.6522 1.485-.0316 2.897.6457 3.801 1.8245l-.029-1.5303zm-6.965 6.4143c0 2.2145 1.387 4.0577 3.544 4.0577 1.901 0 3.602-1.3585 3.602-4.0192s-1.73-4.1238-3.602-4.1238c-2.157 0-3.544 1.8146-3.544 4.0863zm13.39-6.4143h2.927v1.1501c.367-.4166.8-.769 1.282-1.0455.554-.308 1.182-.4561 1.815-.4275.82-.0177 1.63.1935 2.338.6082l-1.217 2.6706c-.446-.3011-.972-.4601-1.51-.4561-.69-.0534-1.368.2004-1.853.694-.64.8412-.932 1.8956-.818 2.946v6.6049h-2.964v-12.7428zm18.692 3.9056c-.94-.9942-2.243-1.5638-3.612-1.5776-1.065-.0425-2.1.3643-2.851 1.1215-.745.7918-1.138 1.8502-1.093 2.9362-.04 1.1324.374 2.2332 1.15 3.0595.733.6793 1.7 1.0475 2.699 1.0268 1.397-.0079 2.728-.6012 3.668-1.6349v3.3073c-1.173.6872-2.519 1.0179-3.877.9508-1.817.1086-3.589-.5865-4.846-1.9005-1.22-1.2756-1.877-2.9875-1.825-4.7518-.058-1.8363.627-3.6173 1.901-4.9413 1.375-1.3081 3.226-1.9953 5.122-1.9005 1.226-.001 2.43.3268 3.487.9508l.076 3.3547zm2.547-13.2374h2.965v10.3862c.888-.936 2.13-1.4533 3.42-1.4256 1.464-.0978 2.877.5538 3.754 1.7297.617 1.0751.901 2.3082.818 3.5443v7.8399h-2.965v-7.5358c.098-.7839-.105-1.5757-.571-2.2145-.442-.4423-1.047-.6832-1.672-.6654-.866-.0326-1.692.3663-2.205 1.0643-.513.9843-.726 2.0979-.608 3.2027v6.1487h-2.965z"/></g></svg>