<svg fill="none" height="51" viewBox="0 0 165 51" width="165" xmlns="http://www.w3.org/2000/svg"><path d="m24.129 44.9101c-.4677 1.2245-.818 2.3371-.818 2.9199.0002.5551.1457 1.1003.4219 1.5813s.6734.8808 1.152 1.1596 1.0218.4268 1.5753.4291c.5534.0023 1.0978-.1411 1.5787-.4158-1.1428-.4453-2.1263-1.2239-2.8233-2.2354s-1.0755-2.2093-1.0866-3.4387z" fill="#fff"/><path d="m29.3695 49.0996c-1.2837-.3648-2.4138-1.1397-3.2186-2.2069-.8049-1.0672-1.2407-2.3685-1.2412-3.7066 0-.0677 0-.1403.0078-.2148-.2729.6377-.5459 1.3039-.7886 1.9387.0114 1.2299.3905 2.4281 1.0882 3.4396.6978 1.0115 1.682 1.7899 2.8256 2.2345.5891-.34 1.054-.8602 1.3268-1.4845z" fill="#b5b8c5"/><path d="m29.5574 47.2286c-1.1403-.4545-2.1182-1.2418-2.8073-2.2599-.689-1.0181-1.0575-2.2201-1.0577-3.4505 0-.104.0059-.2159.0176-.3366-.2407.5279-.5156 1.1441-.7925 1.7897 0 .0746-.0078.1472-.0078.2149.0005 1.338.4362 2.6393 1.2411 3.7066.8049 1.0672 1.9349 1.842 3.2187 2.2069.1745-.4004.2644-.8327.2642-1.2697-.0057-.2025-.0313-.4039-.0763-.6014z" fill="#576178"/><path d="m29.557 47.2286c-.4833-2.3038-3.085-7.6787-3.085-7.6787s-.3229.6672-.7622 1.6317c-.0118.1207-.0177.2325-.0177.3366.0002 1.2304.3687 2.4324 1.0577 3.4505.6891 1.0181 1.667 1.8053 2.8072 2.2599z" fill="#681e4a"/><path d="m25.5188 18.8237c.0861.21.1663.42.2446.6309.2895.7841.5284 1.5861.7152 2.4009.1868-.8148.4257-1.6168.7153-2.4009.0783-.2106.1598-.4209.2446-.6309 2.2276-6.0734 7.0961-11.33673 14.6054-15.78993-2.0844-1.28154-4.3184-2.300488-6.6515-3.03377-4.9275 4.18632-7.8988 8.84458-8.9138 13.9748-1.0189-5.13022-3.9917-9.78848-8.9186-13.9748-2.3334.73143-4.5681 1.74839-6.6535 3.02789 7.5132 4.45189 12.384 9.71721 14.6123 15.79581z" fill="#681e4a"/><path d="m25.935 35.1779c.2084.5298.3913 1.0645.544 1.6032.1556-.5387.3356-1.0734.544-1.6032 1.7117-4.2917 4.8261-8.1912 9.3433-11.6985 4.4728-3.4818 9.9988-6.4025 16.578-8.7618-1.1243-2.1475-2.5043-4.1503-4.1095-5.96456-5.0228 2.13306-9.3192 4.62716-12.8892 7.48236-3.6119 2.8781-6.298 6.0264-8.0586 9.4448-.5854 1.1212-1.0586 2.2978-1.4129 3.5125-.3543-1.2147-.8276-2.3913-1.4129-3.5125-1.7612-3.4204-4.4474-6.5686-8.0586-9.4448-3.5726-2.8604-7.87034-5.3578-12.89308-7.49217-1.60501 1.81487-2.9849 3.81787-4.10952 5.96547 6.58827 2.3607 12.1188 5.2843 16.5917 8.7707 4.5165 3.5126 7.631 7.4121 9.3433 11.6985z" fill="#b5b8c5"/><path d="m42.6432 3.41055c-7.6085 4.31321-12.6765 9.45095-15.2042 15.41315-.0855.21-.167.4203-.2446.6309-.2896.7841-.5285 1.5861-.7153 2.4009-.1868-.8148-.4257-1.6168-.7152-2.4009-.0783-.2109-.1585-.4209-.2446-.6309-2.5284-5.9635-7.5994-11.10288-15.2131-15.41806-2.09345 1.35545-4.01062 2.9668-5.70732 4.79693 5.01883 2.22403 9.27572 4.81163 12.77082 7.76303 3.5224 2.9651 6.0889 6.2029 7.6995 9.7136.5853 1.1212 1.0586 2.2978 1.4129 3.5125.3542-1.2147.8275-2.3913 1.4128-3.5125 1.6106-3.5074 4.1771-6.7453 7.6995-9.7136 3.4938-2.9514 7.7468-5.5374 12.7591-7.75812-1.6978-1.83018-3.6159-3.44153-5.7103-4.79693z" fill="#576178"/><g fill="#fff"><path d="m68.0163 4.82344v17.18806h-3.0606v-17.18806h-4.5851v-2.88954h12.2415v2.88954z"/><path d="m73.8735 9.33778h2.9471v1.14302c.3528-.4139.7662-.77189 1.2261-1.06158.5492-.3004 1.1705-.44299 1.7954-.41209.8178-.00393 1.6204.22175 2.317.6515l-1.2055 2.67267c-.444-.2955-.9651-.4531-1.498-.4533-.337-.0264-.6758.0226-.9917.1434s-.6011.3104-.835.5552c-.6333.8329-.9233 1.8778-.8102 2.919v6.6101h-2.9452z"/><path d="m95.7909 15.684c0 1.339-.396 2.6479-1.1379 3.7613-.7418 1.1133-1.7962 1.981-3.0299 2.4934-1.2336.5124-2.5911.6465-3.9008.3853-1.3096-.2612-2.5126-.906-3.4568-1.8528s-1.5872-2.1532-1.8477-3.4664c-.2605-1.3133-.1268-2.6745.3842-3.9116s1.3763-2.2944 2.4866-3.0383 2.4156-1.14096 3.7509-1.14096c1.7906 0 3.5078.71327 4.7739 1.98286 1.2661 1.2697 1.9775 2.9917 1.9775 4.7872zm-3.0049 0c0-2.8895-1.8835-4.0699-3.7671-4.0699-1.8835 0-3.7671 1.1774-3.7671 4.0699 0 2.4372 1.4413 4.0326 3.7671 4.0326s3.7671-1.5581 3.7671-3.9943z"/><path d="m100.178 9.33783 3.245 7.22437 3.239-7.22437h3.307l-6.593 13.57157-6.5979-13.57157z"/><path d="m122.659 19.1034c-.514.9316-1.244 1.7253-2.129 2.3136-1.141.6665-2.448.9938-3.767.9439-.785.0451-1.571-.0762-2.306-.356s-1.403-.7118-1.96-1.2679c-1.243-1.3001-1.92-3.0415-1.884-4.842-.03-1.9327.689-3.8017 2.006-5.213.554-.5587 1.215-.99838 1.943-1.29225.729-.29387 1.51-.43573 2.295-.41693.752-.0204 1.5.1159 2.197.4003.698.2844 1.328.71068 1.853 1.25198 1.251 1.4923 1.885 3.4087 1.771 5.3552v.368h-9.07c.064.9509.446 1.8524 1.083 2.5589.3.2824.655.5002 1.042.6399s.798.1984 1.209.1725c.725.0315 1.438-.1924 2.016-.6329.475-.3826.871-.8541 1.167-1.3883zm-2.911-5.1472c-.117-.6611-.448-1.2651-.941-1.719-.575-.4782-1.302-.7316-2.048-.7136-.747.0181-1.461.3064-2.012.8117-.445.4461-.755 1.0094-.894 1.6248z"/><path d="m66.5093 28.552c2.4295 0 3.9931.3022 5.2836 1.1774.7531.5294 1.3638 1.2374 1.778 2.0608s.6188 1.7367.5958 2.6586c.0464 1.3116-.376 2.5967-1.1911 3.6236-.815 1.0268-1.969 1.728-3.254 1.977l6.2435 8.5754h-3.6927l-5.7377-8.2163h-.5371v8.2163h-3.0235v-20.0728zm-.5088 9.2171h.9413c.8385 0 4.2572-.0981 4.2572-3.2869 0-2.8326-2.6653-3.0976-4.1721-3.0976h-1.0264zm23.4408 8.0083c-.5118.9355-1.242 1.7327-2.1281 2.3234-1.141.6665-2.4475.9939-3.7671.9439-.7755.0376-1.5504-.0856-2.2763-.3617-.7259-.2762-1.3873-.6995-1.9428-1.2435-1.2399-1.303-1.9168-3.0442-1.8835-4.845-.0333-1.9348.6866-3.8065 2.0068-5.2178.5544-.5609 1.217-1.0026 1.9473-1.2981.7302-.2956 1.5129-.4388 2.3002-.421.753-.0187 1.5016.1193 2.1987.4054.697.286 1.3274.714 1.8511 1.2567 1.2698 1.4992 1.9112 3.4333 1.7896 5.3965v.3571h-9.0702c.0621.9515.4439 1.8539 1.0831 2.5599.2989.2838.6531.5024 1.0405.6421.3873.1396.7993.1973 1.2099.1693.7249.0318 1.4379-.1917 2.0157-.6319.4775-.3775.8748-.8473 1.1682-1.3814zm-2.9197-5.1472c-.1169-.6583-.4479-1.2593-.9412-1.7092-.5711-.4838-1.2985-.742-2.0459-.7263s-1.4634.3043-2.0138.8117c-.4581.443-.784 1.0053-.9412 1.6238zm11.3022-1.2932c-.1803-.3214-.4412-.59-.7568-.7793s-.6749-.2927-1.0426-.3c-.1711-.0126-.343.0103-.5049.0672-.162.0569-.3105.1466-.4364.2635-.1726.1755-.2699.4118-.271.6584-.002.1471.0365.292.1113.4187.0747.1267.1828.2303.3124.2995.179.1226.3581.1785.9412.519l1.5068.7457c.656.2827 1.2559.6816 1.7711 1.1774.3112.3031.5561.6681.7181 1.0717.162.4035.238.8366.223 1.2713.012 1.0702-.385 2.1044-1.1104 2.8896-.4506.4827-1.0016.86-1.6139 1.1052s-1.2709.3522-1.9291.3136c-.9755.0424-1.9371-.2436-2.7318-.8125-.7553-.5989-1.3195-1.4061-1.6233-2.3224l2.4011-1.143c.1448.4476.3822.8595.6967 1.2088.1727.1617.3757.2875.5972.3702s.4572.1206.6934.1115c.4373.0122.8635-.1392 1.1956-.4248.2621-.2642.414-.6186.4247-.991-.0056-.3544-.1476-.693-.3963-.9449-.3658-.341-.7941-.6076-1.2612-.7849l-1.0763-.5102c-.6365-.2631-1.225-.6301-1.7417-1.0862-.3027-.2653-.544-.5937-.7067-.9624-.1628-.3686-.2432-.7685-.2355-1.1716.012-1.0219.4168-1.9997 1.1301-2.7296.4004-.409.8828-.7282 1.4152-.9366.5325-.2084 1.1029-.3012 1.6738-.2722.8336-.0292 1.6552.2056 2.3483.6711.6017.3916 1.0969.927 1.4412 1.5581zm16.3022 6.4404c-.512.9353-1.242 1.7325-2.128 2.3234-1.142.6654-2.448.9927-3.767.9439-.777.0373-1.552-.0864-2.278-.3634-.727-.2771-1.388-.7015-1.943-1.2467-1.244-1.301-1.921-3.0434-1.885-4.845-.032-1.9347.692-3.8054 2.016-5.2129.551-.5597 1.21-1.0008 1.938-1.2963.727-.2956 1.506-.4394 2.291-.4228.754-.0211 1.504.1158 2.202.402s1.329.7154 1.852 1.2601c1.278 1.4951 1.923 3.4314 1.799 5.3965v.3571h-9.07c.058.9526.441 1.8563 1.084 2.5599.298.2844.652.5035 1.04.6432.387.1397.799.197 1.21.1682.722.0334 1.433-.1904 2.006-.6319.478-.3773.878-.8462 1.174-1.3795zm-2.91-5.1472c-.092-.5335-.327-1.0318-.681-1.441s-.812-.7138-1.326-.881c-.513-.1671-1.062-.1904-1.588-.0674-.526.1231-1.008.3878-1.395.7656-.461.4407-.788 1.0039-.942 1.6238zm15.012-4.6272h2.936v12.663h-2.936v-1.3256c-.462.5477-1.04.9858-1.692 1.2828-.651.2971-1.36.4457-2.076.4353-3.898 0-6.121-3.2487-6.121-6.7436 0-4.1268 2.826-6.6102 6.15-6.6102.725-.0158 1.445.1402 2.099.4552.655.315 1.226.7803 1.668 1.358zm-6.904 6.3776c0 2.2008 1.376 4.0326 3.513 4.0326 1.884 0 3.569-1.3501 3.569-3.9953s-1.713-4.0983-3.569-4.0983c-2.138-.0079-3.513 1.7965-3.513 4.0532zm13.27-6.3776h2.901v1.1431c.364-.4141.794-.7652 1.272-1.0391.549-.3061 1.172-.4532 1.8-.4248.813-.0178 1.614.1914 2.316.6044l-1.206 2.6491c-.442-.2983-.964-.4563-1.497-.4533-.337-.0261-.676.0218-.994.1404-.317.1186-.604.3051-.842.5464-.634.836-.924 1.8839-.811 2.9279v6.5689h-2.935zm18.525 3.8815c-.46-.4896-1.015-.881-1.63-1.1507-.615-.2698-1.278-.4123-1.949-.4192-.522-.0215-1.043.0663-1.53.2576-.487.1914-.928.4823-1.297.8541-.364.3901-.646.8492-.831 1.3502-.185.5011-.268 1.0341-.245 1.5678-.019.5573.071 1.113.267 1.635s.492 1 .873 1.4066c.726.6751 1.684 1.041 2.674 1.0205.685-.004 1.362-.1505 1.988-.4301.626-.2797 1.187-.6865 1.648-1.1948v3.287c-1.162.683-2.498 1.0113-3.843.9448-.89.0534-1.78-.088-2.609-.4144-.829-.3263-1.578-.8297-2.194-1.4753-.598-.6274-1.066-1.368-1.377-2.1786-.31-.8105-.457-1.6749-.431-2.5428-.028-.9024.124-1.8014.447-2.6439.324-.8426.812-1.6117 1.437-2.2619.674-.6437 1.471-1.143 2.344-1.4677s1.802-.468 2.732-.4211c1.215-.0015 2.409.3245 3.456.9439zm2.525-13.1555h2.935v10.3219c.436-.4618.964-.8269 1.549-1.0716s1.215-.3637 1.849-.3491c.714-.0475 1.428.0848 2.077.3849.65.3001 1.214.7584 1.641 1.3331.611 1.0687.893 2.2945.811 3.5234v7.7944h-2.936v-7.4922c.098-.7791-.104-1.5662-.565-2.2008-.217-.2177-.476-.3886-.761-.5024-.285-.1137-.59-.1678-.897-.1589-.423-.016-.843.0721-1.223.2564-.381.1844-.711.4595-.962.8013-.509.9781-.719 2.0856-.603 3.1829v6.1137h-2.935z"/></g></svg>